<?xml version="1.0" encoding="us-ascii" standalone="no"?><svg xmlns="http://www.w3.org/2000/svg" xmlns:xlink="http://www.w3.org/1999/xlink" contentStyleType="text/css" height="2226px" preserveAspectRatio="none" style="width:1795px;height:2226px;background:#FFFFFF;" version="1.1" viewBox="0 0 1795 2226" width="1795px" zoomAndPan="magnify"><defs/><g><ellipse cx="916" cy="20" fill="#222222" rx="10" ry="10" style="stroke:#222222;stroke-width:1.0;"/><rect fill="#F1F1F1" height="33.9688" rx="12.5" ry="12.5" style="stroke:#181818;stroke-width:0.5;" width="133" x="849.5" y="50"/><text fill="#000000" font-family="sans-serif" font-size="12" lengthAdjust="spacing" textLength="113" x="859.5" y="71.1387">Serial.begin(9600)</text><rect fill="#F1F1F1" height="33.9688" rx="12.5" ry="12.5" style="stroke:#181818;stroke-width:0.5;" width="68" x="882" y="103.9688"/><text fill="#000000" font-family="sans-serif" font-size="12" lengthAdjust="spacing" textLength="48" x="892" y="125.1074">lcd.init()</text><rect fill="#F1F1F1" height="33.9688" rx="12.5" ry="12.5" style="stroke:#181818;stroke-width:0.5;" width="105" x="863.5" y="157.9375"/><text fill="#000000" font-family="sans-serif" font-size="12" lengthAdjust="spacing" textLength="85" x="873.5" y="179.0762">lcd.backlight()</text><rect fill="#F1F1F1" height="33.9688" rx="12.5" ry="12.5" style="stroke:#181818;stroke-width:0.5;" width="169" x="831.5" y="211.9063"/><text fill="#000000" font-family="sans-serif" font-size="12" lengthAdjust="spacing" textLength="149" x="841.5" y="233.0449">lcd.createChar(0, grado)</text><rect fill="#F1F1F1" height="33.9688" rx="12.5" ry="12.5" style="stroke:#181818;stroke-width:0.5;" width="85" x="873.5" y="265.875"/><text fill="#000000" font-family="sans-serif" font-size="12" lengthAdjust="spacing" textLength="65" x="883.5" y="287.0137">lcd.home()</text><rect fill="#F1F1F1" height="33.9688" rx="12.5" ry="12.5" style="stroke:#181818;stroke-width:0.5;" width="148" x="842" y="319.8438"/><text fill="#000000" font-family="sans-serif" font-size="12" lengthAdjust="spacing" textLength="128" x="852" y="340.9824">mensajeDeCortecia()</text><rect fill="#F1F1F1" height="33.9688" rx="12.5" ry="12.5" style="stroke:#181818;stroke-width:0.5;" width="81" x="875.5" y="373.8125"/><text fill="#000000" font-family="sans-serif" font-size="12" lengthAdjust="spacing" textLength="61" x="885.5" y="394.9512">lcd.clear()</text><rect fill="#F1F1F1" height="33.9688" rx="12.5" ry="12.5" style="stroke:#181818;stroke-width:0.5;" width="125" x="853.5" y="427.7813"/><text fill="#000000" font-family="sans-serif" font-size="12" lengthAdjust="spacing" textLength="105" x="863.5" y="448.9199">esperaDeDatos()</text><rect fill="#F1F1F1" height="33.9688" rx="12.5" ry="12.5" style="stroke:#181818;stroke-width:0.5;" width="167" x="832.5" y="481.75"/><text fill="#000000" font-family="sans-serif" font-size="12" lengthAdjust="spacing" textLength="147" x="842.5" y="502.8887">pinMode(agua, OUTPUT)</text><rect fill="#F1F1F1" height="33.9688" rx="12.5" ry="12.5" style="stroke:#181818;stroke-width:0.5;" width="204" x="814" y="535.7188"/><text fill="#000000" font-family="sans-serif" font-size="12" lengthAdjust="spacing" textLength="184" x="824" y="556.8574">pinMode(iluminacion, OUTPUT)</text><rect fill="#F1F1F1" height="33.9688" rx="12.5" ry="12.5" style="stroke:#181818;stroke-width:0.5;" width="193" x="819.5" y="589.6875"/><text fill="#000000" font-family="sans-serif" font-size="12" lengthAdjust="spacing" textLength="173" x="829.5" y="610.8262">pinMode(extractor, OUTPUT)</text><rect fill="#F1F1F1" height="33.9688" rx="12.5" ry="12.5" style="stroke:#181818;stroke-width:0.5;" width="196" x="818" y="643.6563"/><text fill="#000000" font-family="sans-serif" font-size="12" lengthAdjust="spacing" textLength="176" x="828" y="664.7949">digitalWrite(iluminacion, true)</text><rect fill="#F1F1F1" height="33.9688" rx="12.5" ry="12.5" style="stroke:#181818;stroke-width:0.5;" width="244" x="794" y="741.625"/><text fill="#000000" font-family="sans-serif" font-size="12" lengthAdjust="spacing" textLength="224" x="804" y="762.7637">humedadDelSuelo = analogRead(A0)</text><rect fill="#F1F1F1" height="33.9688" rx="12.5" ry="12.5" style="stroke:#181818;stroke-width:0.5;" width="264" x="784" y="795.5938"/><text fill="#000000" font-family="sans-serif" font-size="12" lengthAdjust="spacing" textLength="244" x="794" y="816.7324">temperatura = dht11.readTemperature()</text><rect fill="#F1F1F1" height="33.9688" rx="12.5" ry="12.5" style="stroke:#181818;stroke-width:0.5;" width="87" x="872.5" y="849.5625"/><text fill="#000000" font-family="sans-serif" font-size="12" lengthAdjust="spacing" textLength="67" x="882.5" y="870.7012">delay(500)</text><rect fill="#F1F1F1" height="33.9688" rx="12.5" ry="12.5" style="stroke:#181818;stroke-width:0.5;" width="220" x="806" y="903.5313"/><text fill="#000000" font-family="sans-serif" font-size="12" lengthAdjust="spacing" textLength="200" x="816" y="924.6699">humedad = dht11.readHumidity()</text><rect fill="#F1F1F1" height="33.9688" rx="12.5" ry="12.5" style="stroke:#181818;stroke-width:0.5;" width="87" x="872.5" y="957.5"/><text fill="#000000" font-family="sans-serif" font-size="12" lengthAdjust="spacing" textLength="67" x="882.5" y="978.6387">delay(500)</text><polygon fill="#F1F1F1" points="666.5,1011.4688,1165.5,1011.4688,1177.5,1023.4688,1165.5,1035.4688,666.5,1035.4688,654.5,1023.4688,666.5,1011.4688" style="stroke:#181818;stroke-width:0.5;"/><text fill="#000000" font-family="sans-serif" font-size="11" lengthAdjust="spacing" textLength="499" x="666.5" y="1027.2769">temperatura != DHT11::ERROR_CHECKSUM &amp;&amp; temperatura != DHT11::ERROR_TIMEOUT</text><text fill="#000000" font-family="sans-serif" font-size="11" lengthAdjust="spacing" textLength="11" x="643.5" y="1020.8745">S&#237;</text><text fill="#000000" font-family="sans-serif" font-size="11" lengthAdjust="spacing" textLength="15" x="1177.5" y="1020.8745">No</text><rect fill="#F1F1F1" height="33.9688" rx="12.5" ry="12.5" style="stroke:#181818;stroke-width:0.5;" width="189" x="550" y="1045.4688"/><text fill="#000000" font-family="sans-serif" font-size="12" lengthAdjust="spacing" textLength="169" x="560" y="1066.6074">Serial.print("Temperatura: ")</text><rect fill="#F1F1F1" height="33.9688" rx="12.5" ry="12.5" style="stroke:#181818;stroke-width:0.5;" width="168" x="560.5" y="1099.4375"/><text fill="#000000" font-family="sans-serif" font-size="12" lengthAdjust="spacing" textLength="148" x="570.5" y="1120.5762">Serial.print(temperatura)</text><rect fill="#F1F1F1" height="33.9688" rx="12.5" ry="12.5" style="stroke:#181818;stroke-width:0.5;" width="132" x="578.5" y="1153.4063"/><text fill="#000000" font-family="sans-serif" font-size="12" lengthAdjust="spacing" textLength="112" x="588.5" y="1174.5449">Serial.println(" &#176;C")</text><rect fill="#F1F1F1" height="33.9688" rx="12.5" ry="12.5" style="stroke:#181818;stroke-width:0.5;" width="262" x="1056.5" y="1045.4688"/><text fill="#000000" font-family="sans-serif" font-size="12" lengthAdjust="spacing" textLength="242" x="1066.5" y="1066.6074">Serial.print("Error al leer temperatura: ")</text><rect fill="#F1F1F1" height="33.9688" rx="12.5" ry="12.5" style="stroke:#181818;stroke-width:0.5;" width="320" x="1027.5" y="1099.4375"/><text fill="#000000" font-family="sans-serif" font-size="12" lengthAdjust="spacing" textLength="300" x="1037.5" y="1120.5762">Serial.println(DHT11::getErrorString(temperatura))</text><polygon fill="#F1F1F1" points="916,1193.375,928,1205.375,916,1217.375,904,1205.375,916,1193.375" style="stroke:#181818;stroke-width:0.5;"/><polygon fill="#F1F1F1" points="683.5,1237.375,1148.5,1237.375,1160.5,1249.375,1148.5,1261.375,683.5,1261.375,671.5,1249.375,683.5,1237.375" style="stroke:#181818;stroke-width:0.5;"/><text fill="#000000" font-family="sans-serif" font-size="11" lengthAdjust="spacing" textLength="465" x="683.5" y="1253.1831">humedad != DHT11::ERROR_CHECKSUM &amp;&amp; humedad != DHT11::ERROR_TIMEOUT</text><text fill="#000000" font-family="sans-serif" font-size="11" lengthAdjust="spacing" textLength="11" x="660.5" y="1246.7808">S&#237;</text><text fill="#000000" font-family="sans-serif" font-size="11" lengthAdjust="spacing" textLength="15" x="1160.5" y="1246.7808">No</text><rect fill="#F1F1F1" height="33.9688" rx="12.5" ry="12.5" style="stroke:#181818;stroke-width:0.5;" width="170" x="576.5" y="1271.375"/><text fill="#000000" font-family="sans-serif" font-size="12" lengthAdjust="spacing" textLength="150" x="586.5" y="1292.5137">Serial.print("Humedad: ")</text><rect fill="#F1F1F1" height="33.9688" rx="12.5" ry="12.5" style="stroke:#181818;stroke-width:0.5;" width="150" x="586.5" y="1325.3438"/><text fill="#000000" font-family="sans-serif" font-size="12" lengthAdjust="spacing" textLength="130" x="596.5" y="1346.4824">Serial.print(humedad)</text><rect fill="#F1F1F1" height="33.9688" rx="12.5" ry="12.5" style="stroke:#181818;stroke-width:0.5;" width="146" x="588.5" y="1379.3125"/><text fill="#000000" font-family="sans-serif" font-size="12" lengthAdjust="spacing" textLength="126" x="598.5" y="1400.4512">Serial.println("% HR")</text><rect fill="#F1F1F1" height="33.9688" rx="12.5" ry="12.5" style="stroke:#181818;stroke-width:0.5;" width="244" x="1048.5" y="1271.375"/><text fill="#000000" font-family="sans-serif" font-size="12" lengthAdjust="spacing" textLength="224" x="1058.5" y="1292.5137">Serial.print("Error al leer humedad: ")</text><rect fill="#F1F1F1" height="33.9688" rx="12.5" ry="12.5" style="stroke:#181818;stroke-width:0.5;" width="302" x="1019.5" y="1325.3438"/><text fill="#000000" font-family="sans-serif" font-size="12" lengthAdjust="spacing" textLength="282" x="1029.5" y="1346.4824">Serial.println(DHT11::getErrorString(humedad))</text><polygon fill="#F1F1F1" points="916,1419.2813,928,1431.2813,916,1443.2813,904,1431.2813,916,1419.2813" style="stroke:#181818;stroke-width:0.5;"/><polygon fill="#F1F1F1" points="57,1463.2813,566,1463.2813,578,1475.2813,566,1487.2813,57,1487.2813,45,1475.2813,57,1463.2813" style="stroke:#181818;stroke-width:0.5;"/><text fill="#000000" font-family="sans-serif" font-size="11" lengthAdjust="spacing" textLength="11" x="315.5" y="1497.4917">S&#237;</text><text fill="#000000" font-family="sans-serif" font-size="11" lengthAdjust="spacing" textLength="509" x="57" y="1479.0894">humedadDelSuelo &gt; valorDelAgua &amp;&amp; humedadDelSuelo &lt; (valorDelAgua + intervalos)</text><rect fill="#F1F1F1" height="33.9688" rx="12.5" ry="12.5" style="stroke:#181818;stroke-width:0.5;" width="158" x="232.5" y="1518.9917"/><text fill="#000000" font-family="sans-serif" font-size="12" lengthAdjust="spacing" textLength="138" x="242.5" y="1540.1304">Serial.println("Mojado")</text><rect fill="#F1F1F1" height="33.9688" rx="12.5" ry="12.5" style="stroke:#181818;stroke-width:0.5;" width="96" x="263.5" y="1572.9604"/><text fill="#000000" font-family="sans-serif" font-size="12" lengthAdjust="spacing" textLength="76" x="273.5" y="1594.0991">selector = 2</text><polygon fill="#F1F1F1" points="610,1463.2813,1189,1463.2813,1201,1475.2813,1189,1487.2813,610,1487.2813,598,1475.2813,610,1463.2813" style="stroke:#181818;stroke-width:0.5;"/><text fill="#000000" font-family="sans-serif" font-size="11" lengthAdjust="spacing" textLength="11" x="903.5" y="1497.4917">S&#237;</text><text fill="#000000" font-family="sans-serif" font-size="11" lengthAdjust="spacing" textLength="579" x="610" y="1479.0894">humedadDelSuelo &gt; (valorDelAgua + intervalos) &amp;&amp; humedadDelSuelo &lt; (valorDelAire - intervalos)</text><rect fill="#F1F1F1" height="33.9688" rx="12.5" ry="12.5" style="stroke:#181818;stroke-width:0.5;" width="165" x="817" y="1518.9917"/><text fill="#000000" font-family="sans-serif" font-size="12" lengthAdjust="spacing" textLength="145" x="827" y="1540.1304">Serial.println("Humedo")</text><rect fill="#F1F1F1" height="33.9688" rx="12.5" ry="12.5" style="stroke:#181818;stroke-width:0.5;" width="95" x="852" y="1572.9604"/><text fill="#000000" font-family="sans-serif" font-size="12" lengthAdjust="spacing" textLength="75" x="862" y="1594.0991">selector = 1</text><polygon fill="#F1F1F1" points="1233,1463.2813,1725,1463.2813,1737,1475.2813,1725,1487.2813,1233,1487.2813,1221,1475.2813,1233,1463.2813" style="stroke:#181818;stroke-width:0.5;"/><text fill="#000000" font-family="sans-serif" font-size="11" lengthAdjust="spacing" textLength="11" x="1483" y="1497.4917">S&#237;</text><text fill="#000000" font-family="sans-serif" font-size="11" lengthAdjust="spacing" textLength="492" x="1233" y="1479.0894">humedadDelSuelo &lt; valorDelAire &amp;&amp; humedadDelSuelo &gt; (valorDelAire - intervalos)</text><rect fill="#F1F1F1" height="33.9688" rx="12.5" ry="12.5" style="stroke:#181818;stroke-width:0.5;" width="145" x="1406.5" y="1518.9917"/><text fill="#000000" font-family="sans-serif" font-size="12" lengthAdjust="spacing" textLength="125" x="1416.5" y="1540.1304">Serial.println("Seco")</text><rect fill="#F1F1F1" height="33.9688" rx="12.5" ry="12.5" style="stroke:#181818;stroke-width:0.5;" width="96" x="1431" y="1572.9604"/><text fill="#000000" font-family="sans-serif" font-size="12" lengthAdjust="spacing" textLength="76" x="1441" y="1594.0991">selector = 0</text><polygon fill="#F1F1F1" points="662.5,1646.9292,852.5,1646.9292,864.5,1658.9292,852.5,1670.9292,662.5,1670.9292,650.5,1658.9292,662.5,1646.9292" style="stroke:#181818;stroke-width:0.5;"/><text fill="#000000" font-family="sans-serif" font-size="11" lengthAdjust="spacing" textLength="11" x="761.5" y="1681.1396">S&#237;</text><text fill="#000000" font-family="sans-serif" font-size="11" lengthAdjust="spacing" textLength="190" x="662.5" y="1662.7373">contador &gt;= 0 &amp;&amp; contador &lt;= 3</text><rect fill="#F1F1F1" height="33.9688" rx="12.5" ry="12.5" style="stroke:#181818;stroke-width:0.5;" width="94" x="710.5" y="1702.6396"/><text fill="#000000" font-family="sans-serif" font-size="12" lengthAdjust="spacing" textLength="74" x="720.5" y="1723.7783">contador++</text><rect fill="#F1F1F1" height="33.9688" rx="12.5" ry="12.5" style="stroke:#181818;stroke-width:0.5;" width="359" x="578" y="1805.0107"/><text fill="#000000" font-family="sans-serif" font-size="12" lengthAdjust="spacing" textLength="339" x="588" y="1826.1494">imprimirTemperaturaYHumedad(temperatura, humedad)</text><polygon fill="#F1F1F1" points="517,1756.6084,998,1756.6084,1010,1768.6084,998,1780.6084,517,1780.6084,505,1768.6084,517,1756.6084" style="stroke:#181818;stroke-width:0.5;"/><text fill="#000000" font-family="sans-serif" font-size="11" lengthAdjust="spacing" textLength="11" x="761.5" y="1790.8188">S&#237;</text><text fill="#000000" font-family="sans-serif" font-size="11" lengthAdjust="spacing" textLength="481" x="517" y="1772.4165">temperatura &gt;= 0 &amp;&amp; temperatura &lt;= 50 &amp;&amp; humedad &gt;= 0 &amp;&amp; humedad &lt;= 100</text><polygon fill="#F1F1F1" points="757.5,1858.9795,769.5,1870.9795,757.5,1882.9795,745.5,1870.9795,757.5,1858.9795" style="stroke:#181818;stroke-width:0.5;"/><polygon fill="#F1F1F1" points="1064.5,1646.9292,1254.5,1646.9292,1266.5,1658.9292,1254.5,1670.9292,1064.5,1670.9292,1052.5,1658.9292,1064.5,1646.9292" style="stroke:#181818;stroke-width:0.5;"/><text fill="#000000" font-family="sans-serif" font-size="11" lengthAdjust="spacing" textLength="11" x="1163.5" y="1681.1396">S&#237;</text><text fill="#000000" font-family="sans-serif" font-size="11" lengthAdjust="spacing" textLength="190" x="1064.5" y="1662.7373">contador &gt;= 4 &amp;&amp; contador &lt;= 6</text><rect fill="#F1F1F1" height="33.9688" rx="12.5" ry="12.5" style="stroke:#181818;stroke-width:0.5;" width="94" x="1112.5" y="1702.6396"/><text fill="#000000" font-family="sans-serif" font-size="12" lengthAdjust="spacing" textLength="74" x="1122.5" y="1723.7783">contador++</text><rect fill="#F1F1F1" height="33.9688" rx="12.5" ry="12.5" style="stroke:#181818;stroke-width:0.5;" width="100" x="1109.5" y="1805.0107"/><text fill="#000000" font-family="sans-serif" font-size="12" lengthAdjust="spacing" textLength="80" x="1119.5" y="1826.1494">contador = 0</text><polygon fill="#F1F1F1" points="1123,1756.6084,1196,1756.6084,1208,1768.6084,1196,1780.6084,1123,1780.6084,1111,1768.6084,1123,1756.6084" style="stroke:#181818;stroke-width:0.5;"/><text fill="#000000" font-family="sans-serif" font-size="11" lengthAdjust="spacing" textLength="11" x="1163.5" y="1790.8188">S&#237;</text><text fill="#000000" font-family="sans-serif" font-size="11" lengthAdjust="spacing" textLength="73" x="1123" y="1772.4165">contador &gt; 6</text><polygon fill="#F1F1F1" points="1159.5,1858.9795,1171.5,1870.9795,1159.5,1882.9795,1147.5,1870.9795,1159.5,1858.9795" style="stroke:#181818;stroke-width:0.5;"/><rect fill="#F1F1F1" height="33.9688" rx="12.5" ry="12.5" style="stroke:#181818;stroke-width:0.5;" width="235" x="1042" y="1902.9795"/><text fill="#000000" font-family="sans-serif" font-size="12" lengthAdjust="spacing" textLength="215" x="1052" y="1924.1182">imprimirHumedadEnSuelo(selector)</text><polygon fill="#F1F1F1" points="876.5,1976.9482,955.5,1976.9482,967.5,1988.9482,955.5,2000.9482,876.5,2000.9482,864.5,1988.9482,876.5,1976.9482" style="stroke:#181818;stroke-width:0.5;"/><text fill="#000000" font-family="sans-serif" font-size="11" lengthAdjust="spacing" textLength="79" x="876.5" y="1992.7563">selector == 0</text><text fill="#000000" font-family="sans-serif" font-size="11" lengthAdjust="spacing" textLength="11" x="853.5" y="1986.354">S&#237;</text><text fill="#000000" font-family="sans-serif" font-size="11" lengthAdjust="spacing" textLength="15" x="967.5" y="1986.354">No</text><rect fill="#F1F1F1" height="33.9688" rx="12.5" ry="12.5" style="stroke:#181818;stroke-width:0.5;" width="164" x="743.25" y="2010.9482"/><text fill="#000000" font-family="sans-serif" font-size="12" lengthAdjust="spacing" textLength="144" x="753.25" y="2032.0869">digitalWrite(agua, false)</text><rect fill="#F1F1F1" height="33.9688" rx="12.5" ry="12.5" style="stroke:#181818;stroke-width:0.5;" width="159" x="927.25" y="2010.9482"/><text fill="#000000" font-family="sans-serif" font-size="12" lengthAdjust="spacing" textLength="139" x="937.25" y="2032.0869">digitalWrite(agua, true)</text><polygon fill="#F1F1F1" points="916,2050.917,928,2062.917,916,2074.917,904,2062.917,916,2050.917" style="stroke:#181818;stroke-width:0.5;"/><polygon fill="#F1F1F1" points="873.5,2094.917,958.5,2094.917,970.5,2106.917,958.5,2118.917,873.5,2118.917,861.5,2106.917,873.5,2094.917" style="stroke:#181818;stroke-width:0.5;"/><text fill="#000000" font-family="sans-serif" font-size="11" lengthAdjust="spacing" textLength="85" x="873.5" y="2110.7251">humedad &gt; 70</text><text fill="#000000" font-family="sans-serif" font-size="11" lengthAdjust="spacing" textLength="11" x="850.5" y="2104.3228">S&#237;</text><text fill="#000000" font-family="sans-serif" font-size="11" lengthAdjust="spacing" textLength="15" x="970.5" y="2104.3228">No</text><rect fill="#F1F1F1" height="33.9688" rx="12.5" ry="12.5" style="stroke:#181818;stroke-width:0.5;" width="190" x="717.25" y="2128.917"/><text fill="#000000" font-family="sans-serif" font-size="12" lengthAdjust="spacing" textLength="170" x="727.25" y="2150.0557">digitalWrite(extractor, false)</text><rect fill="#F1F1F1" height="33.9688" rx="12.5" ry="12.5" style="stroke:#181818;stroke-width:0.5;" width="185" x="927.25" y="2128.917"/><text fill="#000000" font-family="sans-serif" font-size="12" lengthAdjust="spacing" textLength="165" x="937.25" y="2150.0557">digitalWrite(extractor, true)</text><polygon fill="#F1F1F1" points="916,2168.8857,928,2180.8857,916,2192.8857,904,2180.8857,916,2168.8857" style="stroke:#181818;stroke-width:0.5;"/><polygon fill="#F1F1F1" points="890,697.625,942,697.625,954,709.625,942,721.625,890,721.625,878,709.625,890,697.625" style="stroke:#181818;stroke-width:0.5;"/><text fill="#000000" font-family="sans-serif" font-size="11" lengthAdjust="spacing" textLength="52" x="890" y="713.4331">void loop</text><ellipse cx="24" cy="752.625" fill="none" rx="11" ry="11" style="stroke:#222222;stroke-width:1.0;"/><ellipse cx="24" cy="752.625" fill="#222222" rx="6" ry="6" style="stroke:#222222;stroke-width:1.0;"/><line style="stroke:#181818;stroke-width:1.0;" x1="916" x2="916" y1="30" y2="50"/><polygon fill="#181818" points="912,40,916,50,920,40,916,44" style="stroke:#181818;stroke-width:1.0;"/><line style="stroke:#181818;stroke-width:1.0;" x1="916" x2="916" y1="83.9688" y2="103.9688"/><polygon fill="#181818" points="912,93.9688,916,103.9688,920,93.9688,916,97.9688" style="stroke:#181818;stroke-width:1.0;"/><line style="stroke:#181818;stroke-width:1.0;" x1="916" x2="916" y1="137.9375" y2="157.9375"/><polygon fill="#181818" points="912,147.9375,916,157.9375,920,147.9375,916,151.9375" style="stroke:#181818;stroke-width:1.0;"/><line style="stroke:#181818;stroke-width:1.0;" x1="916" x2="916" y1="191.9063" y2="211.9063"/><polygon fill="#181818" points="912,201.9063,916,211.9063,920,201.9063,916,205.9063" style="stroke:#181818;stroke-width:1.0;"/><line style="stroke:#181818;stroke-width:1.0;" x1="916" x2="916" y1="245.875" y2="265.875"/><polygon fill="#181818" points="912,255.875,916,265.875,920,255.875,916,259.875" style="stroke:#181818;stroke-width:1.0;"/><line style="stroke:#181818;stroke-width:1.0;" x1="916" x2="916" y1="299.8438" y2="319.8438"/><polygon fill="#181818" points="912,309.8438,916,319.8438,920,309.8438,916,313.8438" style="stroke:#181818;stroke-width:1.0;"/><line style="stroke:#181818;stroke-width:1.0;" x1="916" x2="916" y1="353.8125" y2="373.8125"/><polygon fill="#181818" points="912,363.8125,916,373.8125,920,363.8125,916,367.8125" style="stroke:#181818;stroke-width:1.0;"/><line style="stroke:#181818;stroke-width:1.0;" x1="916" x2="916" y1="407.7813" y2="427.7813"/><polygon fill="#181818" points="912,417.7813,916,427.7813,920,417.7813,916,421.7813" style="stroke:#181818;stroke-width:1.0;"/><line style="stroke:#181818;stroke-width:1.0;" x1="916" x2="916" y1="461.75" y2="481.75"/><polygon fill="#181818" points="912,471.75,916,481.75,920,471.75,916,475.75" style="stroke:#181818;stroke-width:1.0;"/><line style="stroke:#181818;stroke-width:1.0;" x1="916" x2="916" y1="515.7188" y2="535.7188"/><polygon fill="#181818" points="912,525.7188,916,535.7188,920,525.7188,916,529.7188" style="stroke:#181818;stroke-width:1.0;"/><line style="stroke:#181818;stroke-width:1.0;" x1="916" x2="916" y1="569.6875" y2="589.6875"/><polygon fill="#181818" points="912,579.6875,916,589.6875,920,579.6875,916,583.6875" style="stroke:#181818;stroke-width:1.0;"/><line style="stroke:#181818;stroke-width:1.0;" x1="916" x2="916" y1="623.6563" y2="643.6563"/><polygon fill="#181818" points="912,633.6563,916,643.6563,920,633.6563,916,637.6563" style="stroke:#181818;stroke-width:1.0;"/><line style="stroke:#181818;stroke-width:1.0;" x1="916" x2="916" y1="775.5938" y2="795.5938"/><polygon fill="#181818" points="912,785.5938,916,795.5938,920,785.5938,916,789.5938" style="stroke:#181818;stroke-width:1.0;"/><line style="stroke:#181818;stroke-width:1.0;" x1="916" x2="916" y1="829.5625" y2="849.5625"/><polygon fill="#181818" points="912,839.5625,916,849.5625,920,839.5625,916,843.5625" style="stroke:#181818;stroke-width:1.0;"/><line style="stroke:#181818;stroke-width:1.0;" x1="916" x2="916" y1="883.5313" y2="903.5313"/><polygon fill="#181818" points="912,893.5313,916,903.5313,920,893.5313,916,897.5313" style="stroke:#181818;stroke-width:1.0;"/><line style="stroke:#181818;stroke-width:1.0;" x1="916" x2="916" y1="937.5" y2="957.5"/><polygon fill="#181818" points="912,947.5,916,957.5,920,947.5,916,951.5" style="stroke:#181818;stroke-width:1.0;"/><line style="stroke:#181818;stroke-width:1.0;" x1="644.5" x2="644.5" y1="1079.4375" y2="1099.4375"/><polygon fill="#181818" points="640.5,1089.4375,644.5,1099.4375,648.5,1089.4375,644.5,1093.4375" style="stroke:#181818;stroke-width:1.0;"/><line style="stroke:#181818;stroke-width:1.0;" x1="644.5" x2="644.5" y1="1133.4063" y2="1153.4063"/><polygon fill="#181818" points="640.5,1143.4063,644.5,1153.4063,648.5,1143.4063,644.5,1147.4063" style="stroke:#181818;stroke-width:1.0;"/><line style="stroke:#181818;stroke-width:1.0;" x1="1187.5" x2="1187.5" y1="1079.4375" y2="1099.4375"/><polygon fill="#181818" points="1183.5,1089.4375,1187.5,1099.4375,1191.5,1089.4375,1187.5,1093.4375" style="stroke:#181818;stroke-width:1.0;"/><line style="stroke:#181818;stroke-width:1.0;" x1="654.5" x2="644.5" y1="1023.4688" y2="1023.4688"/><line style="stroke:#181818;stroke-width:1.0;" x1="644.5" x2="644.5" y1="1023.4688" y2="1045.4688"/><polygon fill="#181818" points="640.5,1035.4688,644.5,1045.4688,648.5,1035.4688,644.5,1039.4688" style="stroke:#181818;stroke-width:1.0;"/><line style="stroke:#181818;stroke-width:1.0;" x1="1177.5" x2="1187.5" y1="1023.4688" y2="1023.4688"/><line style="stroke:#181818;stroke-width:1.0;" x1="1187.5" x2="1187.5" y1="1023.4688" y2="1045.4688"/><polygon fill="#181818" points="1183.5,1035.4688,1187.5,1045.4688,1191.5,1035.4688,1187.5,1039.4688" style="stroke:#181818;stroke-width:1.0;"/><line style="stroke:#181818;stroke-width:1.0;" x1="644.5" x2="644.5" y1="1187.375" y2="1205.375"/><line style="stroke:#181818;stroke-width:1.0;" x1="644.5" x2="904" y1="1205.375" y2="1205.375"/><polygon fill="#181818" points="894,1201.375,904,1205.375,894,1209.375,898,1205.375" style="stroke:#181818;stroke-width:1.0;"/><line style="stroke:#181818;stroke-width:1.0;" x1="1187.5" x2="1187.5" y1="1133.4063" y2="1205.375"/><line style="stroke:#181818;stroke-width:1.0;" x1="1187.5" x2="928" y1="1205.375" y2="1205.375"/><polygon fill="#181818" points="938,1201.375,928,1205.375,938,1209.375,934,1205.375" style="stroke:#181818;stroke-width:1.0;"/><line style="stroke:#181818;stroke-width:1.0;" x1="916" x2="916" y1="991.4688" y2="1011.4688"/><polygon fill="#181818" points="912,1001.4688,916,1011.4688,920,1001.4688,916,1005.4688" style="stroke:#181818;stroke-width:1.0;"/><line style="stroke:#181818;stroke-width:1.0;" x1="661.5" x2="661.5" y1="1305.3438" y2="1325.3438"/><polygon fill="#181818" points="657.5,1315.3438,661.5,1325.3438,665.5,1315.3438,661.5,1319.3438" style="stroke:#181818;stroke-width:1.0;"/><line style="stroke:#181818;stroke-width:1.0;" x1="661.5" x2="661.5" y1="1359.3125" y2="1379.3125"/><polygon fill="#181818" points="657.5,1369.3125,661.5,1379.3125,665.5,1369.3125,661.5,1373.3125" style="stroke:#181818;stroke-width:1.0;"/><line style="stroke:#181818;stroke-width:1.0;" x1="1170.5" x2="1170.5" y1="1305.3438" y2="1325.3438"/><polygon fill="#181818" points="1166.5,1315.3438,1170.5,1325.3438,1174.5,1315.3438,1170.5,1319.3438" style="stroke:#181818;stroke-width:1.0;"/><line style="stroke:#181818;stroke-width:1.0;" x1="671.5" x2="661.5" y1="1249.375" y2="1249.375"/><line style="stroke:#181818;stroke-width:1.0;" x1="661.5" x2="661.5" y1="1249.375" y2="1271.375"/><polygon fill="#181818" points="657.5,1261.375,661.5,1271.375,665.5,1261.375,661.5,1265.375" style="stroke:#181818;stroke-width:1.0;"/><line style="stroke:#181818;stroke-width:1.0;" x1="1160.5" x2="1170.5" y1="1249.375" y2="1249.375"/><line style="stroke:#181818;stroke-width:1.0;" x1="1170.5" x2="1170.5" y1="1249.375" y2="1271.375"/><polygon fill="#181818" points="1166.5,1261.375,1170.5,1271.375,1174.5,1261.375,1170.5,1265.375" style="stroke:#181818;stroke-width:1.0;"/><line style="stroke:#181818;stroke-width:1.0;" x1="661.5" x2="661.5" y1="1413.2813" y2="1431.2813"/><line style="stroke:#181818;stroke-width:1.0;" x1="661.5" x2="904" y1="1431.2813" y2="1431.2813"/><polygon fill="#181818" points="894,1427.2813,904,1431.2813,894,1435.2813,898,1431.2813" style="stroke:#181818;stroke-width:1.0;"/><line style="stroke:#181818;stroke-width:1.0;" x1="1170.5" x2="1170.5" y1="1359.3125" y2="1431.2813"/><line style="stroke:#181818;stroke-width:1.0;" x1="1170.5" x2="928" y1="1431.2813" y2="1431.2813"/><polygon fill="#181818" points="938,1427.2813,928,1431.2813,938,1435.2813,934,1431.2813" style="stroke:#181818;stroke-width:1.0;"/><line style="stroke:#181818;stroke-width:1.0;" x1="916" x2="916" y1="1217.375" y2="1237.375"/><polygon fill="#181818" points="912,1227.375,916,1237.375,920,1227.375,916,1231.375" style="stroke:#181818;stroke-width:1.0;"/><line style="stroke:#181818;stroke-width:1.0;" x1="311.5" x2="311.5" y1="1552.9604" y2="1572.9604"/><polygon fill="#181818" points="307.5,1562.9604,311.5,1572.9604,315.5,1562.9604,311.5,1566.9604" style="stroke:#181818;stroke-width:1.0;"/><line style="stroke:#181818;stroke-width:1.0;" x1="899.5" x2="899.5" y1="1552.9604" y2="1572.9604"/><polygon fill="#181818" points="895.5,1562.9604,899.5,1572.9604,903.5,1562.9604,899.5,1566.9604" style="stroke:#181818;stroke-width:1.0;"/><line style="stroke:#181818;stroke-width:1.0;" x1="1479" x2="1479" y1="1552.9604" y2="1572.9604"/><polygon fill="#181818" points="1475,1562.9604,1479,1572.9604,1483,1562.9604,1479,1566.9604" style="stroke:#181818;stroke-width:1.0;"/><line style="stroke:#181818;stroke-width:1.0;" x1="311.5" x2="311.5" y1="1487.2813" y2="1518.9917"/><polygon fill="#181818" points="307.5,1508.9917,311.5,1518.9917,315.5,1508.9917,311.5,1512.9917" style="stroke:#181818;stroke-width:1.0;"/><line style="stroke:#181818;stroke-width:1.0;" x1="311.5" x2="311.5" y1="1606.9292" y2="1626.9292"/><polygon fill="#181818" points="307.5,1616.9292,311.5,1626.9292,315.5,1616.9292,311.5,1620.9292" style="stroke:#181818;stroke-width:1.0;"/><line style="stroke:#181818;stroke-width:1.0;" x1="899.5" x2="899.5" y1="1487.2813" y2="1518.9917"/><polygon fill="#181818" points="895.5,1508.9917,899.5,1518.9917,903.5,1508.9917,899.5,1512.9917" style="stroke:#181818;stroke-width:1.0;"/><line style="stroke:#181818;stroke-width:1.0;" x1="899.5" x2="899.5" y1="1606.9292" y2="1626.9292"/><polygon fill="#181818" points="895.5,1616.9292,899.5,1626.9292,903.5,1616.9292,899.5,1620.9292" style="stroke:#181818;stroke-width:1.0;"/><line style="stroke:#181818;stroke-width:1.0;" x1="1479" x2="1479" y1="1487.2813" y2="1518.9917"/><polygon fill="#181818" points="1475,1508.9917,1479,1518.9917,1483,1508.9917,1479,1512.9917" style="stroke:#181818;stroke-width:1.0;"/><line style="stroke:#181818;stroke-width:1.0;" x1="1479" x2="1479" y1="1606.9292" y2="1626.9292"/><polygon fill="#181818" points="1475,1616.9292,1479,1626.9292,1483,1616.9292,1479,1620.9292" style="stroke:#181818;stroke-width:1.0;"/><line style="stroke:#181818;stroke-width:1.0;" x1="578" x2="598" y1="1475.2813" y2="1475.2813"/><polygon fill="#181818" points="588,1471.2813,598,1475.2813,588,1479.2813,592,1475.2813" style="stroke:#181818;stroke-width:1.0;"/><line style="stroke:#181818;stroke-width:1.0;" x1="1201" x2="1221" y1="1475.2813" y2="1475.2813"/><polygon fill="#181818" points="1211,1471.2813,1221,1475.2813,1211,1479.2813,1215,1475.2813" style="stroke:#181818;stroke-width:1.0;"/><line style="stroke:#181818;stroke-width:1.0;" x1="916" x2="916" y1="1443.2813" y2="1448.2813"/><line style="stroke:#181818;stroke-width:1.0;" x1="916" x2="311.5" y1="1448.2813" y2="1448.2813"/><line style="stroke:#181818;stroke-width:1.0;" x1="311.5" x2="311.5" y1="1448.2813" y2="1463.2813"/><polygon fill="#181818" points="307.5,1453.2813,311.5,1463.2813,315.5,1453.2813,311.5,1457.2813" style="stroke:#181818;stroke-width:1.0;"/><line style="stroke:#181818;stroke-width:1.0;" x1="1737" x2="1751" y1="1475.2813" y2="1475.2813"/><line style="stroke:#181818;stroke-width:1.0;" x1="1751" x2="1751" y1="1475.2813" y2="1626.9292"/><polygon fill="#181818" points="1747,1616.9292,1751,1626.9292,1755,1616.9292,1751,1620.9292" style="stroke:#181818;stroke-width:1.0;"/><line style="stroke:#181818;stroke-width:1.0;" x1="311.5" x2="1751" y1="1626.9292" y2="1626.9292"/><line style="stroke:#181818;stroke-width:1.0;" x1="757.5" x2="757.5" y1="1780.6084" y2="1805.0107"/><polygon fill="#181818" points="753.5,1795.0107,757.5,1805.0107,761.5,1795.0107,757.5,1799.0107" style="stroke:#181818;stroke-width:1.0;"/><line style="stroke:#181818;stroke-width:1.0;" x1="1010" x2="1022" y1="1768.6084" y2="1768.6084"/><polygon fill="#181818" points="1018,1811.9951,1022,1821.9951,1026,1811.9951,1022,1815.9951" style="stroke:#181818;stroke-width:1.0;"/><line style="stroke:#181818;stroke-width:1.0;" x1="1022" x2="1022" y1="1768.6084" y2="1870.9795"/><line style="stroke:#181818;stroke-width:1.0;" x1="1022" x2="769.5" y1="1870.9795" y2="1870.9795"/><polygon fill="#181818" points="779.5,1866.9795,769.5,1870.9795,779.5,1874.9795,775.5,1870.9795" style="stroke:#181818;stroke-width:1.0;"/><line style="stroke:#181818;stroke-width:1.0;" x1="757.5" x2="757.5" y1="1838.9795" y2="1858.9795"/><polygon fill="#181818" points="753.5,1848.9795,757.5,1858.9795,761.5,1848.9795,757.5,1852.9795" style="stroke:#181818;stroke-width:1.0;"/><line style="stroke:#181818;stroke-width:1.0;" x1="757.5" x2="757.5" y1="1736.6084" y2="1756.6084"/><polygon fill="#181818" points="753.5,1746.6084,757.5,1756.6084,761.5,1746.6084,757.5,1750.6084" style="stroke:#181818;stroke-width:1.0;"/><line style="stroke:#181818;stroke-width:1.0;" x1="1159.5" x2="1159.5" y1="1780.6084" y2="1805.0107"/><polygon fill="#181818" points="1155.5,1795.0107,1159.5,1805.0107,1163.5,1795.0107,1159.5,1799.0107" style="stroke:#181818;stroke-width:1.0;"/><line style="stroke:#181818;stroke-width:1.0;" x1="1208" x2="1220" y1="1768.6084" y2="1768.6084"/><polygon fill="#181818" points="1216,1811.9951,1220,1821.9951,1224,1811.9951,1220,1815.9951" style="stroke:#181818;stroke-width:1.0;"/><line style="stroke:#181818;stroke-width:1.0;" x1="1220" x2="1220" y1="1768.6084" y2="1870.9795"/><line style="stroke:#181818;stroke-width:1.0;" x1="1220" x2="1171.5" y1="1870.9795" y2="1870.9795"/><polygon fill="#181818" points="1181.5,1866.9795,1171.5,1870.9795,1181.5,1874.9795,1177.5,1870.9795" style="stroke:#181818;stroke-width:1.0;"/><line style="stroke:#181818;stroke-width:1.0;" x1="1159.5" x2="1159.5" y1="1838.9795" y2="1858.9795"/><polygon fill="#181818" points="1155.5,1848.9795,1159.5,1858.9795,1163.5,1848.9795,1159.5,1852.9795" style="stroke:#181818;stroke-width:1.0;"/><line style="stroke:#181818;stroke-width:1.0;" x1="1159.5" x2="1159.5" y1="1736.6084" y2="1756.6084"/><polygon fill="#181818" points="1155.5,1746.6084,1159.5,1756.6084,1163.5,1746.6084,1159.5,1750.6084" style="stroke:#181818;stroke-width:1.0;"/><line style="stroke:#181818;stroke-width:1.0;" x1="1159.5" x2="1159.5" y1="1882.9795" y2="1902.9795"/><polygon fill="#181818" points="1155.5,1892.9795,1159.5,1902.9795,1163.5,1892.9795,1159.5,1896.9795" style="stroke:#181818;stroke-width:1.0;"/><line style="stroke:#181818;stroke-width:1.0;" x1="757.5" x2="757.5" y1="1670.9292" y2="1702.6396"/><polygon fill="#181818" points="753.5,1692.6396,757.5,1702.6396,761.5,1692.6396,757.5,1696.6396" style="stroke:#181818;stroke-width:1.0;"/><line style="stroke:#181818;stroke-width:1.0;" x1="757.5" x2="757.5" y1="1882.9795" y2="1956.9482"/><polygon fill="#181818" points="753.5,1946.9482,757.5,1956.9482,761.5,1946.9482,757.5,1950.9482" style="stroke:#181818;stroke-width:1.0;"/><line style="stroke:#181818;stroke-width:1.0;" x1="1159.5" x2="1159.5" y1="1670.9292" y2="1702.6396"/><polygon fill="#181818" points="1155.5,1692.6396,1159.5,1702.6396,1163.5,1692.6396,1159.5,1696.6396" style="stroke:#181818;stroke-width:1.0;"/><line style="stroke:#181818;stroke-width:1.0;" x1="1159.5" x2="1159.5" y1="1936.9482" y2="1956.9482"/><polygon fill="#181818" points="1155.5,1946.9482,1159.5,1956.9482,1163.5,1946.9482,1159.5,1950.9482" style="stroke:#181818;stroke-width:1.0;"/><line style="stroke:#181818;stroke-width:1.0;" x1="864.5" x2="1052.5" y1="1658.9292" y2="1658.9292"/><polygon fill="#181818" points="1042.5,1654.9292,1052.5,1658.9292,1042.5,1662.9292,1046.5,1658.9292" style="stroke:#181818;stroke-width:1.0;"/><line style="stroke:#181818;stroke-width:1.0;" x1="916" x2="916" y1="1626.9292" y2="1631.9292"/><line style="stroke:#181818;stroke-width:1.0;" x1="916" x2="757.5" y1="1631.9292" y2="1631.9292"/><line style="stroke:#181818;stroke-width:1.0;" x1="757.5" x2="757.5" y1="1631.9292" y2="1646.9292"/><polygon fill="#181818" points="753.5,1636.9292,757.5,1646.9292,761.5,1636.9292,757.5,1640.9292" style="stroke:#181818;stroke-width:1.0;"/><line style="stroke:#181818;stroke-width:1.0;" x1="1266.5" x2="1312" y1="1658.9292" y2="1658.9292"/><line style="stroke:#181818;stroke-width:1.0;" x1="1312" x2="1312" y1="1658.9292" y2="1956.9482"/><polygon fill="#181818" points="1308,1946.9482,1312,1956.9482,1316,1946.9482,1312,1950.9482" style="stroke:#181818;stroke-width:1.0;"/><line style="stroke:#181818;stroke-width:1.0;" x1="757.5" x2="1312" y1="1956.9482" y2="1956.9482"/><line style="stroke:#181818;stroke-width:1.0;" x1="864.5" x2="825.25" y1="1988.9482" y2="1988.9482"/><line style="stroke:#181818;stroke-width:1.0;" x1="825.25" x2="825.25" y1="1988.9482" y2="2010.9482"/><polygon fill="#181818" points="821.25,2000.9482,825.25,2010.9482,829.25,2000.9482,825.25,2004.9482" style="stroke:#181818;stroke-width:1.0;"/><line style="stroke:#181818;stroke-width:1.0;" x1="967.5" x2="1006.75" y1="1988.9482" y2="1988.9482"/><line style="stroke:#181818;stroke-width:1.0;" x1="1006.75" x2="1006.75" y1="1988.9482" y2="2010.9482"/><polygon fill="#181818" points="1002.75,2000.9482,1006.75,2010.9482,1010.75,2000.9482,1006.75,2004.9482" style="stroke:#181818;stroke-width:1.0;"/><line style="stroke:#181818;stroke-width:1.0;" x1="825.25" x2="825.25" y1="2044.917" y2="2062.917"/><line style="stroke:#181818;stroke-width:1.0;" x1="825.25" x2="904" y1="2062.917" y2="2062.917"/><polygon fill="#181818" points="894,2058.917,904,2062.917,894,2066.917,898,2062.917" style="stroke:#181818;stroke-width:1.0;"/><line style="stroke:#181818;stroke-width:1.0;" x1="1006.75" x2="1006.75" y1="2044.917" y2="2062.917"/><line style="stroke:#181818;stroke-width:1.0;" x1="1006.75" x2="928" y1="2062.917" y2="2062.917"/><polygon fill="#181818" points="938,2058.917,928,2062.917,938,2066.917,934,2062.917" style="stroke:#181818;stroke-width:1.0;"/><line style="stroke:#181818;stroke-width:1.0;" x1="916" x2="916" y1="1956.9482" y2="1976.9482"/><polygon fill="#181818" points="912,1966.9482,916,1976.9482,920,1966.9482,916,1970.9482" style="stroke:#181818;stroke-width:1.0;"/><line style="stroke:#181818;stroke-width:1.0;" x1="861.5" x2="812.25" y1="2106.917" y2="2106.917"/><line style="stroke:#181818;stroke-width:1.0;" x1="812.25" x2="812.25" y1="2106.917" y2="2128.917"/><polygon fill="#181818" points="808.25,2118.917,812.25,2128.917,816.25,2118.917,812.25,2122.917" style="stroke:#181818;stroke-width:1.0;"/><line style="stroke:#181818;stroke-width:1.0;" x1="970.5" x2="1019.75" y1="2106.917" y2="2106.917"/><line style="stroke:#181818;stroke-width:1.0;" x1="1019.75" x2="1019.75" y1="2106.917" y2="2128.917"/><polygon fill="#181818" points="1015.75,2118.917,1019.75,2128.917,1023.75,2118.917,1019.75,2122.917" style="stroke:#181818;stroke-width:1.0;"/><line style="stroke:#181818;stroke-width:1.0;" x1="812.25" x2="812.25" y1="2162.8857" y2="2180.8857"/><line style="stroke:#181818;stroke-width:1.0;" x1="812.25" x2="904" y1="2180.8857" y2="2180.8857"/><polygon fill="#181818" points="894,2176.8857,904,2180.8857,894,2184.8857,898,2180.8857" style="stroke:#181818;stroke-width:1.0;"/><line style="stroke:#181818;stroke-width:1.0;" x1="1019.75" x2="1019.75" y1="2162.8857" y2="2180.8857"/><line style="stroke:#181818;stroke-width:1.0;" x1="1019.75" x2="928" y1="2180.8857" y2="2180.8857"/><polygon fill="#181818" points="938,2176.8857,928,2180.8857,938,2184.8857,934,2180.8857" style="stroke:#181818;stroke-width:1.0;"/><line style="stroke:#181818;stroke-width:1.0;" x1="916" x2="916" y1="2074.917" y2="2094.917"/><polygon fill="#181818" points="912,2084.917,916,2094.917,920,2084.917,916,2088.917" style="stroke:#181818;stroke-width:1.0;"/><line style="stroke:#181818;stroke-width:1.0;" x1="916" x2="916" y1="721.625" y2="741.625"/><polygon fill="#181818" points="912,731.625,916,741.625,920,731.625,916,735.625" style="stroke:#181818;stroke-width:1.0;"/><line style="stroke:#181818;stroke-width:1.0;" x1="916" x2="916" y1="2192.8857" y2="2202.8857"/><line style="stroke:#181818;stroke-width:1.0;" x1="916" x2="1769" y1="2202.8857" y2="2202.8857"/><polygon fill="#181818" points="1765,1486.0508,1769,1476.0508,1773,1486.0508,1769,1482.0508" style="stroke:#181818;stroke-width:1.0;"/><line style="stroke:#181818;stroke-width:1.0;" x1="1769" x2="1769" y1="709.625" y2="2202.8857"/><line style="stroke:#181818;stroke-width:1.0;" x1="1769" x2="954" y1="709.625" y2="709.625"/><polygon fill="#181818" points="964,705.625,954,709.625,964,713.625,960,709.625" style="stroke:#181818;stroke-width:1.0;"/><line style="stroke:#181818;stroke-width:1.0;" x1="878" x2="24" y1="709.625" y2="709.625"/><line style="stroke:#181818;stroke-width:1.0;" x1="24" x2="24" y1="709.625" y2="741.625"/><polygon fill="#181818" points="20,731.625,24,741.625,28,731.625,24,735.625" style="stroke:#181818;stroke-width:1.0;"/><line style="stroke:#181818;stroke-width:1.0;" x1="916" x2="916" y1="677.625" y2="697.625"/><polygon fill="#181818" points="912,687.625,916,697.625,920,687.625,916,691.625" style="stroke:#181818;stroke-width:1.0;"/><!--SRC=[fLLXRzem4FtEhxXLMXK4Gx2jdSOAKWL8L1Fh15JJFarkV4tSEJPod6xzKPFs6xO_jaj8Y864KkrB99_VtNltdBDZounjz1Te19ETMmo4yjwVTxlD3us-z7b7A66zOd7B_EzI164PyGqoYwEG6Q_RXi0mhekjK4UOuI9KCRl7COwqiUWBLcPBfCHqXV4A3HlZc5aTPv6LK3FDqMD1mjfmVRFyVBDquq8caL3C5rfLRUDFQvXljN4tkGY4PVAB4NQdW3K94gBn8nGImNlGWeFKUjLi0FJ394BE-1Zb8a6fOG1CCQc3EJBkNQPM4SXYbBPW4yC8m4FRwtN87BxSn3Ct2CbHiaVlh9idvjMtagOaZGlxM951Qt47daltOW3ZwRBNw_Sdy_dr_DjeEXbzNDpCuFGK3k6MLxC9cTC46w82R_7tLzekyUL_mye8PRsJiWFMXvDCqIx6OQdQbyexWJ-_H-jab35P_4bNaasCqGQO18beNFKrr5Gwxob0coKlBCM3BKbhMiN5NM5VOVeXw-emHzesNQVNMPPNhxFh9KpdpxOhF4XPQrKXfTQcpPy_X0VwyGsjBsai7PCsY0iQ7XVI0c96ayRYvc7BqhPd-fwka8ty62McGqp3yRhmebhN0TQdP0g3yEfvChEphPJPEoJp0hP8AtGD_q_N0lrALTsza_MrikIqWI7jfaesWOi1lDbdAhPRhNNrtJkeAEF6gD9Prvsa0bIi2T2ZIssNZEX4H3r5mZXtpzTye5pQDcoFqRh5yW3SBj_kTdb-N9TbZOeC9wUmkLJXz95hdwZicBtYQFOdhZmqAhSlSEi5Mp-DTuoQhRefAh3vCrTp6GxXtLEKphDw7A-Ji4DEt-orRJHYgrV_0000]--></g></svg>