<?xml version="1.0" encoding="us-ascii" standalone="no"?><svg xmlns="http://www.w3.org/2000/svg" xmlns:xlink="http://www.w3.org/1999/xlink" contentStyleType="text/css" height="1936px" preserveAspectRatio="none" style="width:1795px;height:1936px;background:#FFFFFF;" version="1.1" viewBox="0 0 1795 1936" width="1795px" zoomAndPan="magnify"><defs/><g><ellipse cx="916" cy="20" fill="#222222" rx="10" ry="10" style="stroke:#222222;stroke-width:1.0;"/><rect fill="#F1F1F1" height="33.9688" rx="12.5" ry="12.5" style="stroke:#181818;stroke-width:0.5;" width="133" x="849.5" y="50"/><text fill="#000000" font-family="sans-serif" font-size="12" lengthAdjust="spacing" textLength="113" x="859.5" y="71.1387">Serial.begin(9600)</text><rect fill="#F1F1F1" height="33.9688" rx="12.5" ry="12.5" style="stroke:#181818;stroke-width:0.5;" width="68" x="882" y="103.9688"/><text fill="#000000" font-family="sans-serif" font-size="12" lengthAdjust="spacing" textLength="48" x="892" y="125.1074">lcd.init()</text><rect fill="#F1F1F1" height="33.9688" rx="12.5" ry="12.5" style="stroke:#181818;stroke-width:0.5;" width="105" x="863.5" y="157.9375"/><text fill="#000000" font-family="sans-serif" font-size="12" lengthAdjust="spacing" textLength="85" x="873.5" y="179.0762">lcd.backlight()</text><rect fill="#F1F1F1" height="33.9688" rx="12.5" ry="12.5" style="stroke:#181818;stroke-width:0.5;" width="169" x="831.5" y="211.9063"/><text fill="#000000" font-family="sans-serif" font-size="12" lengthAdjust="spacing" textLength="149" x="841.5" y="233.0449">lcd.createChar(0, grado)</text><rect fill="#F1F1F1" height="33.9688" rx="12.5" ry="12.5" style="stroke:#181818;stroke-width:0.5;" width="85" x="873.5" y="265.875"/><text fill="#000000" font-family="sans-serif" font-size="12" lengthAdjust="spacing" textLength="65" x="883.5" y="287.0137">lcd.home()</text><rect fill="#F1F1F1" height="33.9688" rx="12.5" ry="12.5" style="stroke:#181818;stroke-width:0.5;" width="148" x="842" y="319.8438"/><text fill="#000000" font-family="sans-serif" font-size="12" lengthAdjust="spacing" textLength="128" x="852" y="340.9824">mensajeDeCortecia()</text><rect fill="#F1F1F1" height="33.9688" rx="12.5" ry="12.5" style="stroke:#181818;stroke-width:0.5;" width="81" x="875.5" y="373.8125"/><text fill="#000000" font-family="sans-serif" font-size="12" lengthAdjust="spacing" textLength="61" x="885.5" y="394.9512">lcd.clear()</text><rect fill="#F1F1F1" height="33.9688" rx="12.5" ry="12.5" style="stroke:#181818;stroke-width:0.5;" width="125" x="853.5" y="427.7813"/><text fill="#000000" font-family="sans-serif" font-size="12" lengthAdjust="spacing" textLength="105" x="863.5" y="448.9199">esperaDeDatos()</text><rect fill="#F1F1F1" height="33.9688" rx="12.5" ry="12.5" style="stroke:#181818;stroke-width:0.5;" width="167" x="832.5" y="481.75"/><text fill="#000000" font-family="sans-serif" font-size="12" lengthAdjust="spacing" textLength="147" x="842.5" y="502.8887">pinMode(agua, OUTPUT)</text><rect fill="#F1F1F1" height="33.9688" rx="12.5" ry="12.5" style="stroke:#181818;stroke-width:0.5;" width="204" x="814" y="535.7188"/><text fill="#000000" font-family="sans-serif" font-size="12" lengthAdjust="spacing" textLength="184" x="824" y="556.8574">pinMode(iluminacion, OUTPUT)</text><rect fill="#F1F1F1" height="33.9688" rx="12.5" ry="12.5" style="stroke:#181818;stroke-width:0.5;" width="193" x="819.5" y="589.6875"/><text fill="#000000" font-family="sans-serif" font-size="12" lengthAdjust="spacing" textLength="173" x="829.5" y="610.8262">pinMode(extractor, OUTPUT)</text><rect fill="#F1F1F1" height="33.9688" rx="12.5" ry="12.5" style="stroke:#181818;stroke-width:0.5;" width="244" x="794" y="687.6563"/><text fill="#000000" font-family="sans-serif" font-size="12" lengthAdjust="spacing" textLength="224" x="804" y="708.7949">humedadDelSuelo = analogRead(A0)</text><rect fill="#F1F1F1" height="33.9688" rx="12.5" ry="12.5" style="stroke:#181818;stroke-width:0.5;" width="264" x="784" y="741.625"/><text fill="#000000" font-family="sans-serif" font-size="12" lengthAdjust="spacing" textLength="244" x="794" y="762.7637">temperatura = dht11.readTemperature()</text><rect fill="#F1F1F1" height="33.9688" rx="12.5" ry="12.5" style="stroke:#181818;stroke-width:0.5;" width="87" x="872.5" y="795.5938"/><text fill="#000000" font-family="sans-serif" font-size="12" lengthAdjust="spacing" textLength="67" x="882.5" y="816.7324">delay(500)</text><rect fill="#F1F1F1" height="33.9688" rx="12.5" ry="12.5" style="stroke:#181818;stroke-width:0.5;" width="220" x="806" y="849.5625"/><text fill="#000000" font-family="sans-serif" font-size="12" lengthAdjust="spacing" textLength="200" x="816" y="870.7012">humedad = dht11.readHumidity()</text><rect fill="#F1F1F1" height="33.9688" rx="12.5" ry="12.5" style="stroke:#181818;stroke-width:0.5;" width="87" x="872.5" y="903.5313"/><text fill="#000000" font-family="sans-serif" font-size="12" lengthAdjust="spacing" textLength="67" x="882.5" y="924.6699">delay(500)</text><polygon fill="#F1F1F1" points="666.5,957.5,1165.5,957.5,1177.5,969.5,1165.5,981.5,666.5,981.5,654.5,969.5,666.5,957.5" style="stroke:#181818;stroke-width:0.5;"/><text fill="#000000" font-family="sans-serif" font-size="11" lengthAdjust="spacing" textLength="499" x="666.5" y="973.3081">temperatura != DHT11::ERROR_CHECKSUM &amp;&amp; temperatura != DHT11::ERROR_TIMEOUT</text><text fill="#000000" font-family="sans-serif" font-size="11" lengthAdjust="spacing" textLength="11" x="643.5" y="966.9058">S&#237;</text><text fill="#000000" font-family="sans-serif" font-size="11" lengthAdjust="spacing" textLength="15" x="1177.5" y="966.9058">No</text><rect fill="#F1F1F1" height="33.9688" rx="12.5" ry="12.5" style="stroke:#181818;stroke-width:0.5;" width="189" x="550" y="991.5"/><text fill="#000000" font-family="sans-serif" font-size="12" lengthAdjust="spacing" textLength="169" x="560" y="1012.6387">Serial.print("Temperatura: ")</text><rect fill="#F1F1F1" height="33.9688" rx="12.5" ry="12.5" style="stroke:#181818;stroke-width:0.5;" width="168" x="560.5" y="1045.4688"/><text fill="#000000" font-family="sans-serif" font-size="12" lengthAdjust="spacing" textLength="148" x="570.5" y="1066.6074">Serial.print(temperatura)</text><rect fill="#F1F1F1" height="33.9688" rx="12.5" ry="12.5" style="stroke:#181818;stroke-width:0.5;" width="132" x="578.5" y="1099.4375"/><text fill="#000000" font-family="sans-serif" font-size="12" lengthAdjust="spacing" textLength="112" x="588.5" y="1120.5762">Serial.println(" &#176;C")</text><rect fill="#F1F1F1" height="33.9688" rx="12.5" ry="12.5" style="stroke:#181818;stroke-width:0.5;" width="262" x="1056.5" y="991.5"/><text fill="#000000" font-family="sans-serif" font-size="12" lengthAdjust="spacing" textLength="242" x="1066.5" y="1012.6387">Serial.print("Error al leer temperatura: ")</text><rect fill="#F1F1F1" height="33.9688" rx="12.5" ry="12.5" style="stroke:#181818;stroke-width:0.5;" width="320" x="1027.5" y="1045.4688"/><text fill="#000000" font-family="sans-serif" font-size="12" lengthAdjust="spacing" textLength="300" x="1037.5" y="1066.6074">Serial.println(DHT11::getErrorString(temperatura))</text><polygon fill="#F1F1F1" points="916,1139.4063,928,1151.4063,916,1163.4063,904,1151.4063,916,1139.4063" style="stroke:#181818;stroke-width:0.5;"/><polygon fill="#F1F1F1" points="683.5,1183.4063,1148.5,1183.4063,1160.5,1195.4063,1148.5,1207.4063,683.5,1207.4063,671.5,1195.4063,683.5,1183.4063" style="stroke:#181818;stroke-width:0.5;"/><text fill="#000000" font-family="sans-serif" font-size="11" lengthAdjust="spacing" textLength="465" x="683.5" y="1199.2144">humedad != DHT11::ERROR_CHECKSUM &amp;&amp; humedad != DHT11::ERROR_TIMEOUT</text><text fill="#000000" font-family="sans-serif" font-size="11" lengthAdjust="spacing" textLength="11" x="660.5" y="1192.812">S&#237;</text><text fill="#000000" font-family="sans-serif" font-size="11" lengthAdjust="spacing" textLength="15" x="1160.5" y="1192.812">No</text><rect fill="#F1F1F1" height="33.9688" rx="12.5" ry="12.5" style="stroke:#181818;stroke-width:0.5;" width="170" x="576.5" y="1217.4063"/><text fill="#000000" font-family="sans-serif" font-size="12" lengthAdjust="spacing" textLength="150" x="586.5" y="1238.5449">Serial.print("Humedad: ")</text><rect fill="#F1F1F1" height="33.9688" rx="12.5" ry="12.5" style="stroke:#181818;stroke-width:0.5;" width="150" x="586.5" y="1271.375"/><text fill="#000000" font-family="sans-serif" font-size="12" lengthAdjust="spacing" textLength="130" x="596.5" y="1292.5137">Serial.print(humedad)</text><rect fill="#F1F1F1" height="33.9688" rx="12.5" ry="12.5" style="stroke:#181818;stroke-width:0.5;" width="146" x="588.5" y="1325.3438"/><text fill="#000000" font-family="sans-serif" font-size="12" lengthAdjust="spacing" textLength="126" x="598.5" y="1346.4824">Serial.println("% HR")</text><rect fill="#F1F1F1" height="33.9688" rx="12.5" ry="12.5" style="stroke:#181818;stroke-width:0.5;" width="244" x="1048.5" y="1217.4063"/><text fill="#000000" font-family="sans-serif" font-size="12" lengthAdjust="spacing" textLength="224" x="1058.5" y="1238.5449">Serial.print("Error al leer humedad: ")</text><rect fill="#F1F1F1" height="33.9688" rx="12.5" ry="12.5" style="stroke:#181818;stroke-width:0.5;" width="302" x="1019.5" y="1271.375"/><text fill="#000000" font-family="sans-serif" font-size="12" lengthAdjust="spacing" textLength="282" x="1029.5" y="1292.5137">Serial.println(DHT11::getErrorString(humedad))</text><polygon fill="#F1F1F1" points="916,1365.3125,928,1377.3125,916,1389.3125,904,1377.3125,916,1365.3125" style="stroke:#181818;stroke-width:0.5;"/><polygon fill="#F1F1F1" points="57,1409.3125,566,1409.3125,578,1421.3125,566,1433.3125,57,1433.3125,45,1421.3125,57,1409.3125" style="stroke:#181818;stroke-width:0.5;"/><text fill="#000000" font-family="sans-serif" font-size="11" lengthAdjust="spacing" textLength="11" x="315.5" y="1443.5229">S&#237;</text><text fill="#000000" font-family="sans-serif" font-size="11" lengthAdjust="spacing" textLength="509" x="57" y="1425.1206">humedadDelSuelo &gt; valorDelAgua &amp;&amp; humedadDelSuelo &lt; (valorDelAgua + intervalos)</text><rect fill="#F1F1F1" height="33.9688" rx="12.5" ry="12.5" style="stroke:#181818;stroke-width:0.5;" width="158" x="232.5" y="1465.0229"/><text fill="#000000" font-family="sans-serif" font-size="12" lengthAdjust="spacing" textLength="138" x="242.5" y="1486.1616">Serial.println("Mojado")</text><rect fill="#F1F1F1" height="33.9688" rx="12.5" ry="12.5" style="stroke:#181818;stroke-width:0.5;" width="96" x="263.5" y="1518.9917"/><text fill="#000000" font-family="sans-serif" font-size="12" lengthAdjust="spacing" textLength="76" x="273.5" y="1540.1304">selector = 2</text><polygon fill="#F1F1F1" points="610,1409.3125,1189,1409.3125,1201,1421.3125,1189,1433.3125,610,1433.3125,598,1421.3125,610,1409.3125" style="stroke:#181818;stroke-width:0.5;"/><text fill="#000000" font-family="sans-serif" font-size="11" lengthAdjust="spacing" textLength="11" x="903.5" y="1443.5229">S&#237;</text><text fill="#000000" font-family="sans-serif" font-size="11" lengthAdjust="spacing" textLength="579" x="610" y="1425.1206">humedadDelSuelo &gt; (valorDelAgua + intervalos) &amp;&amp; humedadDelSuelo &lt; (valorDelAire - intervalos)</text><rect fill="#F1F1F1" height="33.9688" rx="12.5" ry="12.5" style="stroke:#181818;stroke-width:0.5;" width="165" x="817" y="1465.0229"/><text fill="#000000" font-family="sans-serif" font-size="12" lengthAdjust="spacing" textLength="145" x="827" y="1486.1616">Serial.println("Humedo")</text><rect fill="#F1F1F1" height="33.9688" rx="12.5" ry="12.5" style="stroke:#181818;stroke-width:0.5;" width="95" x="852" y="1518.9917"/><text fill="#000000" font-family="sans-serif" font-size="12" lengthAdjust="spacing" textLength="75" x="862" y="1540.1304">selector = 1</text><polygon fill="#F1F1F1" points="1233,1409.3125,1725,1409.3125,1737,1421.3125,1725,1433.3125,1233,1433.3125,1221,1421.3125,1233,1409.3125" style="stroke:#181818;stroke-width:0.5;"/><text fill="#000000" font-family="sans-serif" font-size="11" lengthAdjust="spacing" textLength="11" x="1483" y="1443.5229">S&#237;</text><text fill="#000000" font-family="sans-serif" font-size="11" lengthAdjust="spacing" textLength="492" x="1233" y="1425.1206">humedadDelSuelo &lt; valorDelAire &amp;&amp; humedadDelSuelo &gt; (valorDelAire - intervalos)</text><rect fill="#F1F1F1" height="33.9688" rx="12.5" ry="12.5" style="stroke:#181818;stroke-width:0.5;" width="145" x="1406.5" y="1465.0229"/><text fill="#000000" font-family="sans-serif" font-size="12" lengthAdjust="spacing" textLength="125" x="1416.5" y="1486.1616">Serial.println("Seco")</text><rect fill="#F1F1F1" height="33.9688" rx="12.5" ry="12.5" style="stroke:#181818;stroke-width:0.5;" width="96" x="1431" y="1518.9917"/><text fill="#000000" font-family="sans-serif" font-size="12" lengthAdjust="spacing" textLength="76" x="1441" y="1540.1304">selector = 0</text><polygon fill="#F1F1F1" points="662.5,1592.9604,852.5,1592.9604,864.5,1604.9604,852.5,1616.9604,662.5,1616.9604,650.5,1604.9604,662.5,1592.9604" style="stroke:#181818;stroke-width:0.5;"/><text fill="#000000" font-family="sans-serif" font-size="11" lengthAdjust="spacing" textLength="11" x="761.5" y="1627.1709">S&#237;</text><text fill="#000000" font-family="sans-serif" font-size="11" lengthAdjust="spacing" textLength="190" x="662.5" y="1608.7686">contador &gt;= 0 &amp;&amp; contador &lt;= 3</text><rect fill="#F1F1F1" height="33.9688" rx="12.5" ry="12.5" style="stroke:#181818;stroke-width:0.5;" width="94" x="710.5" y="1648.6709"/><text fill="#000000" font-family="sans-serif" font-size="12" lengthAdjust="spacing" textLength="74" x="720.5" y="1669.8096">contador++</text><rect fill="#F1F1F1" height="33.9688" rx="12.5" ry="12.5" style="stroke:#181818;stroke-width:0.5;" width="359" x="578" y="1751.042"/><text fill="#000000" font-family="sans-serif" font-size="12" lengthAdjust="spacing" textLength="339" x="588" y="1772.1807">imprimirTemperaturaYHumedad(temperatura, humedad)</text><polygon fill="#F1F1F1" points="517,1702.6396,998,1702.6396,1010,1714.6396,998,1726.6396,517,1726.6396,505,1714.6396,517,1702.6396" style="stroke:#181818;stroke-width:0.5;"/><text fill="#000000" font-family="sans-serif" font-size="11" lengthAdjust="spacing" textLength="11" x="761.5" y="1736.8501">S&#237;</text><text fill="#000000" font-family="sans-serif" font-size="11" lengthAdjust="spacing" textLength="481" x="517" y="1718.4478">temperatura &gt;= 0 &amp;&amp; temperatura &lt;= 50 &amp;&amp; humedad &gt;= 0 &amp;&amp; humedad &lt;= 100</text><polygon fill="#F1F1F1" points="757.5,1805.0107,769.5,1817.0107,757.5,1829.0107,745.5,1817.0107,757.5,1805.0107" style="stroke:#181818;stroke-width:0.5;"/><polygon fill="#F1F1F1" points="1064.5,1592.9604,1254.5,1592.9604,1266.5,1604.9604,1254.5,1616.9604,1064.5,1616.9604,1052.5,1604.9604,1064.5,1592.9604" style="stroke:#181818;stroke-width:0.5;"/><text fill="#000000" font-family="sans-serif" font-size="11" lengthAdjust="spacing" textLength="11" x="1163.5" y="1627.1709">S&#237;</text><text fill="#000000" font-family="sans-serif" font-size="11" lengthAdjust="spacing" textLength="190" x="1064.5" y="1608.7686">contador &gt;= 4 &amp;&amp; contador &lt;= 6</text><rect fill="#F1F1F1" height="33.9688" rx="12.5" ry="12.5" style="stroke:#181818;stroke-width:0.5;" width="94" x="1112.5" y="1648.6709"/><text fill="#000000" font-family="sans-serif" font-size="12" lengthAdjust="spacing" textLength="74" x="1122.5" y="1669.8096">contador++</text><rect fill="#F1F1F1" height="33.9688" rx="12.5" ry="12.5" style="stroke:#181818;stroke-width:0.5;" width="100" x="1109.5" y="1751.042"/><text fill="#000000" font-family="sans-serif" font-size="12" lengthAdjust="spacing" textLength="80" x="1119.5" y="1772.1807">contador = 0</text><polygon fill="#F1F1F1" points="1123,1702.6396,1196,1702.6396,1208,1714.6396,1196,1726.6396,1123,1726.6396,1111,1714.6396,1123,1702.6396" style="stroke:#181818;stroke-width:0.5;"/><text fill="#000000" font-family="sans-serif" font-size="11" lengthAdjust="spacing" textLength="11" x="1163.5" y="1736.8501">S&#237;</text><text fill="#000000" font-family="sans-serif" font-size="11" lengthAdjust="spacing" textLength="73" x="1123" y="1718.4478">contador &gt; 6</text><polygon fill="#F1F1F1" points="1159.5,1805.0107,1171.5,1817.0107,1159.5,1829.0107,1147.5,1817.0107,1159.5,1805.0107" style="stroke:#181818;stroke-width:0.5;"/><rect fill="#F1F1F1" height="33.9688" rx="12.5" ry="12.5" style="stroke:#181818;stroke-width:0.5;" width="235" x="1042" y="1849.0107"/><text fill="#000000" font-family="sans-serif" font-size="12" lengthAdjust="spacing" textLength="215" x="1052" y="1870.1494">imprimirHumedadEnSuelo(selector)</text><polygon fill="#F1F1F1" points="890,643.6563,942,643.6563,954,655.6563,942,667.6563,890,667.6563,878,655.6563,890,643.6563" style="stroke:#181818;stroke-width:0.5;"/><text fill="#000000" font-family="sans-serif" font-size="11" lengthAdjust="spacing" textLength="52" x="890" y="659.4644">void loop</text><ellipse cx="24" cy="698.6563" fill="none" rx="11" ry="11" style="stroke:#222222;stroke-width:1.0;"/><ellipse cx="24" cy="698.6563" fill="#222222" rx="6" ry="6" style="stroke:#222222;stroke-width:1.0;"/><line style="stroke:#181818;stroke-width:1.0;" x1="916" x2="916" y1="30" y2="50"/><polygon fill="#181818" points="912,40,916,50,920,40,916,44" style="stroke:#181818;stroke-width:1.0;"/><line style="stroke:#181818;stroke-width:1.0;" x1="916" x2="916" y1="83.9688" y2="103.9688"/><polygon fill="#181818" points="912,93.9688,916,103.9688,920,93.9688,916,97.9688" style="stroke:#181818;stroke-width:1.0;"/><line style="stroke:#181818;stroke-width:1.0;" x1="916" x2="916" y1="137.9375" y2="157.9375"/><polygon fill="#181818" points="912,147.9375,916,157.9375,920,147.9375,916,151.9375" style="stroke:#181818;stroke-width:1.0;"/><line style="stroke:#181818;stroke-width:1.0;" x1="916" x2="916" y1="191.9063" y2="211.9063"/><polygon fill="#181818" points="912,201.9063,916,211.9063,920,201.9063,916,205.9063" style="stroke:#181818;stroke-width:1.0;"/><line style="stroke:#181818;stroke-width:1.0;" x1="916" x2="916" y1="245.875" y2="265.875"/><polygon fill="#181818" points="912,255.875,916,265.875,920,255.875,916,259.875" style="stroke:#181818;stroke-width:1.0;"/><line style="stroke:#181818;stroke-width:1.0;" x1="916" x2="916" y1="299.8438" y2="319.8438"/><polygon fill="#181818" points="912,309.8438,916,319.8438,920,309.8438,916,313.8438" style="stroke:#181818;stroke-width:1.0;"/><line style="stroke:#181818;stroke-width:1.0;" x1="916" x2="916" y1="353.8125" y2="373.8125"/><polygon fill="#181818" points="912,363.8125,916,373.8125,920,363.8125,916,367.8125" style="stroke:#181818;stroke-width:1.0;"/><line style="stroke:#181818;stroke-width:1.0;" x1="916" x2="916" y1="407.7813" y2="427.7813"/><polygon fill="#181818" points="912,417.7813,916,427.7813,920,417.7813,916,421.7813" style="stroke:#181818;stroke-width:1.0;"/><line style="stroke:#181818;stroke-width:1.0;" x1="916" x2="916" y1="461.75" y2="481.75"/><polygon fill="#181818" points="912,471.75,916,481.75,920,471.75,916,475.75" style="stroke:#181818;stroke-width:1.0;"/><line style="stroke:#181818;stroke-width:1.0;" x1="916" x2="916" y1="515.7188" y2="535.7188"/><polygon fill="#181818" points="912,525.7188,916,535.7188,920,525.7188,916,529.7188" style="stroke:#181818;stroke-width:1.0;"/><line style="stroke:#181818;stroke-width:1.0;" x1="916" x2="916" y1="569.6875" y2="589.6875"/><polygon fill="#181818" points="912,579.6875,916,589.6875,920,579.6875,916,583.6875" style="stroke:#181818;stroke-width:1.0;"/><line style="stroke:#181818;stroke-width:1.0;" x1="916" x2="916" y1="721.625" y2="741.625"/><polygon fill="#181818" points="912,731.625,916,741.625,920,731.625,916,735.625" style="stroke:#181818;stroke-width:1.0;"/><line style="stroke:#181818;stroke-width:1.0;" x1="916" x2="916" y1="775.5938" y2="795.5938"/><polygon fill="#181818" points="912,785.5938,916,795.5938,920,785.5938,916,789.5938" style="stroke:#181818;stroke-width:1.0;"/><line style="stroke:#181818;stroke-width:1.0;" x1="916" x2="916" y1="829.5625" y2="849.5625"/><polygon fill="#181818" points="912,839.5625,916,849.5625,920,839.5625,916,843.5625" style="stroke:#181818;stroke-width:1.0;"/><line style="stroke:#181818;stroke-width:1.0;" x1="916" x2="916" y1="883.5313" y2="903.5313"/><polygon fill="#181818" points="912,893.5313,916,903.5313,920,893.5313,916,897.5313" style="stroke:#181818;stroke-width:1.0;"/><line style="stroke:#181818;stroke-width:1.0;" x1="644.5" x2="644.5" y1="1025.4688" y2="1045.4688"/><polygon fill="#181818" points="640.5,1035.4688,644.5,1045.4688,648.5,1035.4688,644.5,1039.4688" style="stroke:#181818;stroke-width:1.0;"/><line style="stroke:#181818;stroke-width:1.0;" x1="644.5" x2="644.5" y1="1079.4375" y2="1099.4375"/><polygon fill="#181818" points="640.5,1089.4375,644.5,1099.4375,648.5,1089.4375,644.5,1093.4375" style="stroke:#181818;stroke-width:1.0;"/><line style="stroke:#181818;stroke-width:1.0;" x1="1187.5" x2="1187.5" y1="1025.4688" y2="1045.4688"/><polygon fill="#181818" points="1183.5,1035.4688,1187.5,1045.4688,1191.5,1035.4688,1187.5,1039.4688" style="stroke:#181818;stroke-width:1.0;"/><line style="stroke:#181818;stroke-width:1.0;" x1="654.5" x2="644.5" y1="969.5" y2="969.5"/><line style="stroke:#181818;stroke-width:1.0;" x1="644.5" x2="644.5" y1="969.5" y2="991.5"/><polygon fill="#181818" points="640.5,981.5,644.5,991.5,648.5,981.5,644.5,985.5" style="stroke:#181818;stroke-width:1.0;"/><line style="stroke:#181818;stroke-width:1.0;" x1="1177.5" x2="1187.5" y1="969.5" y2="969.5"/><line style="stroke:#181818;stroke-width:1.0;" x1="1187.5" x2="1187.5" y1="969.5" y2="991.5"/><polygon fill="#181818" points="1183.5,981.5,1187.5,991.5,1191.5,981.5,1187.5,985.5" style="stroke:#181818;stroke-width:1.0;"/><line style="stroke:#181818;stroke-width:1.0;" x1="644.5" x2="644.5" y1="1133.4063" y2="1151.4063"/><line style="stroke:#181818;stroke-width:1.0;" x1="644.5" x2="904" y1="1151.4063" y2="1151.4063"/><polygon fill="#181818" points="894,1147.4063,904,1151.4063,894,1155.4063,898,1151.4063" style="stroke:#181818;stroke-width:1.0;"/><line style="stroke:#181818;stroke-width:1.0;" x1="1187.5" x2="1187.5" y1="1079.4375" y2="1151.4063"/><line style="stroke:#181818;stroke-width:1.0;" x1="1187.5" x2="928" y1="1151.4063" y2="1151.4063"/><polygon fill="#181818" points="938,1147.4063,928,1151.4063,938,1155.4063,934,1151.4063" style="stroke:#181818;stroke-width:1.0;"/><line style="stroke:#181818;stroke-width:1.0;" x1="916" x2="916" y1="937.5" y2="957.5"/><polygon fill="#181818" points="912,947.5,916,957.5,920,947.5,916,951.5" style="stroke:#181818;stroke-width:1.0;"/><line style="stroke:#181818;stroke-width:1.0;" x1="661.5" x2="661.5" y1="1251.375" y2="1271.375"/><polygon fill="#181818" points="657.5,1261.375,661.5,1271.375,665.5,1261.375,661.5,1265.375" style="stroke:#181818;stroke-width:1.0;"/><line style="stroke:#181818;stroke-width:1.0;" x1="661.5" x2="661.5" y1="1305.3438" y2="1325.3438"/><polygon fill="#181818" points="657.5,1315.3438,661.5,1325.3438,665.5,1315.3438,661.5,1319.3438" style="stroke:#181818;stroke-width:1.0;"/><line style="stroke:#181818;stroke-width:1.0;" x1="1170.5" x2="1170.5" y1="1251.375" y2="1271.375"/><polygon fill="#181818" points="1166.5,1261.375,1170.5,1271.375,1174.5,1261.375,1170.5,1265.375" style="stroke:#181818;stroke-width:1.0;"/><line style="stroke:#181818;stroke-width:1.0;" x1="671.5" x2="661.5" y1="1195.4063" y2="1195.4063"/><line style="stroke:#181818;stroke-width:1.0;" x1="661.5" x2="661.5" y1="1195.4063" y2="1217.4063"/><polygon fill="#181818" points="657.5,1207.4063,661.5,1217.4063,665.5,1207.4063,661.5,1211.4063" style="stroke:#181818;stroke-width:1.0;"/><line style="stroke:#181818;stroke-width:1.0;" x1="1160.5" x2="1170.5" y1="1195.4063" y2="1195.4063"/><line style="stroke:#181818;stroke-width:1.0;" x1="1170.5" x2="1170.5" y1="1195.4063" y2="1217.4063"/><polygon fill="#181818" points="1166.5,1207.4063,1170.5,1217.4063,1174.5,1207.4063,1170.5,1211.4063" style="stroke:#181818;stroke-width:1.0;"/><line style="stroke:#181818;stroke-width:1.0;" x1="661.5" x2="661.5" y1="1359.3125" y2="1377.3125"/><line style="stroke:#181818;stroke-width:1.0;" x1="661.5" x2="904" y1="1377.3125" y2="1377.3125"/><polygon fill="#181818" points="894,1373.3125,904,1377.3125,894,1381.3125,898,1377.3125" style="stroke:#181818;stroke-width:1.0;"/><line style="stroke:#181818;stroke-width:1.0;" x1="1170.5" x2="1170.5" y1="1305.3438" y2="1377.3125"/><line style="stroke:#181818;stroke-width:1.0;" x1="1170.5" x2="928" y1="1377.3125" y2="1377.3125"/><polygon fill="#181818" points="938,1373.3125,928,1377.3125,938,1381.3125,934,1377.3125" style="stroke:#181818;stroke-width:1.0;"/><line style="stroke:#181818;stroke-width:1.0;" x1="916" x2="916" y1="1163.4063" y2="1183.4063"/><polygon fill="#181818" points="912,1173.4063,916,1183.4063,920,1173.4063,916,1177.4063" style="stroke:#181818;stroke-width:1.0;"/><line style="stroke:#181818;stroke-width:1.0;" x1="311.5" x2="311.5" y1="1498.9917" y2="1518.9917"/><polygon fill="#181818" points="307.5,1508.9917,311.5,1518.9917,315.5,1508.9917,311.5,1512.9917" style="stroke:#181818;stroke-width:1.0;"/><line style="stroke:#181818;stroke-width:1.0;" x1="899.5" x2="899.5" y1="1498.9917" y2="1518.9917"/><polygon fill="#181818" points="895.5,1508.9917,899.5,1518.9917,903.5,1508.9917,899.5,1512.9917" style="stroke:#181818;stroke-width:1.0;"/><line style="stroke:#181818;stroke-width:1.0;" x1="1479" x2="1479" y1="1498.9917" y2="1518.9917"/><polygon fill="#181818" points="1475,1508.9917,1479,1518.9917,1483,1508.9917,1479,1512.9917" style="stroke:#181818;stroke-width:1.0;"/><line style="stroke:#181818;stroke-width:1.0;" x1="311.5" x2="311.5" y1="1433.3125" y2="1465.0229"/><polygon fill="#181818" points="307.5,1455.0229,311.5,1465.0229,315.5,1455.0229,311.5,1459.0229" style="stroke:#181818;stroke-width:1.0;"/><line style="stroke:#181818;stroke-width:1.0;" x1="311.5" x2="311.5" y1="1552.9604" y2="1572.9604"/><polygon fill="#181818" points="307.5,1562.9604,311.5,1572.9604,315.5,1562.9604,311.5,1566.9604" style="stroke:#181818;stroke-width:1.0;"/><line style="stroke:#181818;stroke-width:1.0;" x1="899.5" x2="899.5" y1="1433.3125" y2="1465.0229"/><polygon fill="#181818" points="895.5,1455.0229,899.5,1465.0229,903.5,1455.0229,899.5,1459.0229" style="stroke:#181818;stroke-width:1.0;"/><line style="stroke:#181818;stroke-width:1.0;" x1="899.5" x2="899.5" y1="1552.9604" y2="1572.9604"/><polygon fill="#181818" points="895.5,1562.9604,899.5,1572.9604,903.5,1562.9604,899.5,1566.9604" style="stroke:#181818;stroke-width:1.0;"/><line style="stroke:#181818;stroke-width:1.0;" x1="1479" x2="1479" y1="1433.3125" y2="1465.0229"/><polygon fill="#181818" points="1475,1455.0229,1479,1465.0229,1483,1455.0229,1479,1459.0229" style="stroke:#181818;stroke-width:1.0;"/><line style="stroke:#181818;stroke-width:1.0;" x1="1479" x2="1479" y1="1552.9604" y2="1572.9604"/><polygon fill="#181818" points="1475,1562.9604,1479,1572.9604,1483,1562.9604,1479,1566.9604" style="stroke:#181818;stroke-width:1.0;"/><line style="stroke:#181818;stroke-width:1.0;" x1="578" x2="598" y1="1421.3125" y2="1421.3125"/><polygon fill="#181818" points="588,1417.3125,598,1421.3125,588,1425.3125,592,1421.3125" style="stroke:#181818;stroke-width:1.0;"/><line style="stroke:#181818;stroke-width:1.0;" x1="1201" x2="1221" y1="1421.3125" y2="1421.3125"/><polygon fill="#181818" points="1211,1417.3125,1221,1421.3125,1211,1425.3125,1215,1421.3125" style="stroke:#181818;stroke-width:1.0;"/><line style="stroke:#181818;stroke-width:1.0;" x1="916" x2="916" y1="1389.3125" y2="1394.3125"/><line style="stroke:#181818;stroke-width:1.0;" x1="916" x2="311.5" y1="1394.3125" y2="1394.3125"/><line style="stroke:#181818;stroke-width:1.0;" x1="311.5" x2="311.5" y1="1394.3125" y2="1409.3125"/><polygon fill="#181818" points="307.5,1399.3125,311.5,1409.3125,315.5,1399.3125,311.5,1403.3125" style="stroke:#181818;stroke-width:1.0;"/><line style="stroke:#181818;stroke-width:1.0;" x1="1737" x2="1751" y1="1421.3125" y2="1421.3125"/><line style="stroke:#181818;stroke-width:1.0;" x1="1751" x2="1751" y1="1421.3125" y2="1572.9604"/><polygon fill="#181818" points="1747,1562.9604,1751,1572.9604,1755,1562.9604,1751,1566.9604" style="stroke:#181818;stroke-width:1.0;"/><line style="stroke:#181818;stroke-width:1.0;" x1="311.5" x2="1751" y1="1572.9604" y2="1572.9604"/><line style="stroke:#181818;stroke-width:1.0;" x1="757.5" x2="757.5" y1="1726.6396" y2="1751.042"/><polygon fill="#181818" points="753.5,1741.042,757.5,1751.042,761.5,1741.042,757.5,1745.042" style="stroke:#181818;stroke-width:1.0;"/><line style="stroke:#181818;stroke-width:1.0;" x1="1010" x2="1022" y1="1714.6396" y2="1714.6396"/><polygon fill="#181818" points="1018,1758.0264,1022,1768.0264,1026,1758.0264,1022,1762.0264" style="stroke:#181818;stroke-width:1.0;"/><line style="stroke:#181818;stroke-width:1.0;" x1="1022" x2="1022" y1="1714.6396" y2="1817.0107"/><line style="stroke:#181818;stroke-width:1.0;" x1="1022" x2="769.5" y1="1817.0107" y2="1817.0107"/><polygon fill="#181818" points="779.5,1813.0107,769.5,1817.0107,779.5,1821.0107,775.5,1817.0107" style="stroke:#181818;stroke-width:1.0;"/><line style="stroke:#181818;stroke-width:1.0;" x1="757.5" x2="757.5" y1="1785.0107" y2="1805.0107"/><polygon fill="#181818" points="753.5,1795.0107,757.5,1805.0107,761.5,1795.0107,757.5,1799.0107" style="stroke:#181818;stroke-width:1.0;"/><line style="stroke:#181818;stroke-width:1.0;" x1="757.5" x2="757.5" y1="1682.6396" y2="1702.6396"/><polygon fill="#181818" points="753.5,1692.6396,757.5,1702.6396,761.5,1692.6396,757.5,1696.6396" style="stroke:#181818;stroke-width:1.0;"/><line style="stroke:#181818;stroke-width:1.0;" x1="1159.5" x2="1159.5" y1="1726.6396" y2="1751.042"/><polygon fill="#181818" points="1155.5,1741.042,1159.5,1751.042,1163.5,1741.042,1159.5,1745.042" style="stroke:#181818;stroke-width:1.0;"/><line style="stroke:#181818;stroke-width:1.0;" x1="1208" x2="1220" y1="1714.6396" y2="1714.6396"/><polygon fill="#181818" points="1216,1758.0264,1220,1768.0264,1224,1758.0264,1220,1762.0264" style="stroke:#181818;stroke-width:1.0;"/><line style="stroke:#181818;stroke-width:1.0;" x1="1220" x2="1220" y1="1714.6396" y2="1817.0107"/><line style="stroke:#181818;stroke-width:1.0;" x1="1220" x2="1171.5" y1="1817.0107" y2="1817.0107"/><polygon fill="#181818" points="1181.5,1813.0107,1171.5,1817.0107,1181.5,1821.0107,1177.5,1817.0107" style="stroke:#181818;stroke-width:1.0;"/><line style="stroke:#181818;stroke-width:1.0;" x1="1159.5" x2="1159.5" y1="1785.0107" y2="1805.0107"/><polygon fill="#181818" points="1155.5,1795.0107,1159.5,1805.0107,1163.5,1795.0107,1159.5,1799.0107" style="stroke:#181818;stroke-width:1.0;"/><line style="stroke:#181818;stroke-width:1.0;" x1="1159.5" x2="1159.5" y1="1682.6396" y2="1702.6396"/><polygon fill="#181818" points="1155.5,1692.6396,1159.5,1702.6396,1163.5,1692.6396,1159.5,1696.6396" style="stroke:#181818;stroke-width:1.0;"/><line style="stroke:#181818;stroke-width:1.0;" x1="1159.5" x2="1159.5" y1="1829.0107" y2="1849.0107"/><polygon fill="#181818" points="1155.5,1839.0107,1159.5,1849.0107,1163.5,1839.0107,1159.5,1843.0107" style="stroke:#181818;stroke-width:1.0;"/><line style="stroke:#181818;stroke-width:1.0;" x1="757.5" x2="757.5" y1="1616.9604" y2="1648.6709"/><polygon fill="#181818" points="753.5,1638.6709,757.5,1648.6709,761.5,1638.6709,757.5,1642.6709" style="stroke:#181818;stroke-width:1.0;"/><line style="stroke:#181818;stroke-width:1.0;" x1="757.5" x2="757.5" y1="1829.0107" y2="1902.9795"/><polygon fill="#181818" points="753.5,1892.9795,757.5,1902.9795,761.5,1892.9795,757.5,1896.9795" style="stroke:#181818;stroke-width:1.0;"/><line style="stroke:#181818;stroke-width:1.0;" x1="1159.5" x2="1159.5" y1="1616.9604" y2="1648.6709"/><polygon fill="#181818" points="1155.5,1638.6709,1159.5,1648.6709,1163.5,1638.6709,1159.5,1642.6709" style="stroke:#181818;stroke-width:1.0;"/><line style="stroke:#181818;stroke-width:1.0;" x1="1159.5" x2="1159.5" y1="1882.9795" y2="1902.9795"/><polygon fill="#181818" points="1155.5,1892.9795,1159.5,1902.9795,1163.5,1892.9795,1159.5,1896.9795" style="stroke:#181818;stroke-width:1.0;"/><line style="stroke:#181818;stroke-width:1.0;" x1="864.5" x2="1052.5" y1="1604.9604" y2="1604.9604"/><polygon fill="#181818" points="1042.5,1600.9604,1052.5,1604.9604,1042.5,1608.9604,1046.5,1604.9604" style="stroke:#181818;stroke-width:1.0;"/><line style="stroke:#181818;stroke-width:1.0;" x1="916" x2="916" y1="1572.9604" y2="1577.9604"/><line style="stroke:#181818;stroke-width:1.0;" x1="916" x2="757.5" y1="1577.9604" y2="1577.9604"/><line style="stroke:#181818;stroke-width:1.0;" x1="757.5" x2="757.5" y1="1577.9604" y2="1592.9604"/><polygon fill="#181818" points="753.5,1582.9604,757.5,1592.9604,761.5,1582.9604,757.5,1586.9604" style="stroke:#181818;stroke-width:1.0;"/><line style="stroke:#181818;stroke-width:1.0;" x1="1266.5" x2="1312" y1="1604.9604" y2="1604.9604"/><line style="stroke:#181818;stroke-width:1.0;" x1="1312" x2="1312" y1="1604.9604" y2="1902.9795"/><polygon fill="#181818" points="1308,1892.9795,1312,1902.9795,1316,1892.9795,1312,1896.9795" style="stroke:#181818;stroke-width:1.0;"/><line style="stroke:#181818;stroke-width:1.0;" x1="757.5" x2="1312" y1="1902.9795" y2="1902.9795"/><line style="stroke:#181818;stroke-width:1.0;" x1="916" x2="916" y1="667.6563" y2="687.6563"/><polygon fill="#181818" points="912,677.6563,916,687.6563,920,677.6563,916,681.6563" style="stroke:#181818;stroke-width:1.0;"/><line style="stroke:#181818;stroke-width:1.0;" x1="916" x2="916" y1="1902.9795" y2="1912.9795"/><line style="stroke:#181818;stroke-width:1.0;" x1="916" x2="1769" y1="1912.9795" y2="1912.9795"/><polygon fill="#181818" points="1765,1339.1133,1769,1329.1133,1773,1339.1133,1769,1335.1133" style="stroke:#181818;stroke-width:1.0;"/><line style="stroke:#181818;stroke-width:1.0;" x1="1769" x2="1769" y1="655.6563" y2="1912.9795"/><line style="stroke:#181818;stroke-width:1.0;" x1="1769" x2="954" y1="655.6563" y2="655.6563"/><polygon fill="#181818" points="964,651.6563,954,655.6563,964,659.6563,960,655.6563" style="stroke:#181818;stroke-width:1.0;"/><line style="stroke:#181818;stroke-width:1.0;" x1="878" x2="24" y1="655.6563" y2="655.6563"/><line style="stroke:#181818;stroke-width:1.0;" x1="24" x2="24" y1="655.6563" y2="687.6563"/><polygon fill="#181818" points="20,677.6563,24,687.6563,28,677.6563,24,681.6563" style="stroke:#181818;stroke-width:1.0;"/><line style="stroke:#181818;stroke-width:1.0;" x1="916" x2="916" y1="623.6563" y2="643.6563"/><polygon fill="#181818" points="912,633.6563,916,643.6563,920,633.6563,916,637.6563" style="stroke:#181818;stroke-width:1.0;"/><!--SRC=[fLNTRjem5BxdASwGLWN14DdMIikWKWL8J1FhHE1YLvERd2Rk71ivfbiVQjAUONkndOI469fahNQ3vFFt_JZ7f8Pfq_5yr9o9uGr6N3hlBaQZtlkE9u9mo2KtJdcuOS4tmQEuYWGQcS5fpBGp6a2aMQZALAmIpEiIb2cxmnbEbJOOS5Pr2wJ6x8Jf5ZMRuOmPbUQHBPTB5QB3eXqRmFLc_NcpjkDSx18kMS2Lh4lZ3wDPO9IsaftlCHS8phtY8GYbjhqEW1Vl4WnPE4FXxr0ec02JJAXeXInqhZ8ZgCXWaX4qEyse88oDwmv9UhW-n7EjL1cYO0_E-QXeBAOVDIs8USZDGqq7dVajE3RSYmdC5clNzRpvQdMz-ZfTpASV_SqIpiwWhMxzOJadwJqmCKfm_3y_Cxc4LzprLdDfd6wbW7dGpHcTrbWeTNaXdIxy_ZNTDwD8oU9FgXPihhNIm0G8H6spRu2cqOMc24tUx1kAHqUKzh0ovBUbVQNfRTOrrJpHjiM-lScoOdgJNIzXiNgsNN4hPADL9PL6cmvV_YNSquUlwNn5IsUPTAWOq_BO9NqWPDHPBEsrMvR9NgexUY0Ez5CKcAqeBSVhqejwNYse_wB9DSAhvz7CxxQMfjj6Smn7e3MyBl-Fbuz1BQlHeviDb3Jaj8PBocPC3e7n1DuyHYhJ_Vv- -kaRL8wnOpJfV6HlKbbKdgd0fKVj58pWU4AQ4gwjj-TBiL0sx02ErsWliRe0M-NRKvKNJrDPpQZfi7fAcoiMbew2-rpcr-oKLsDj7FtcVpwTJchKzYy0]--></g></svg>